<svg width="261" height="100" viewBox="0 0 261 100" fill="none" xmlns="http://www.w3.org/2000/svg">
<g clip-path="url(#clip0_1885_26881)">
<path d="M253.204 75.4922C248.095 75.4922 245.467 78.8331 245.05 79.3519C243.757 76.924 241.4 75.4922 238.272 75.4922C233.767 75.4922 231.223 78.0861 230.806 78.5219C230.618 77.8163 229.701 75.928 226.802 75.928C225.968 75.928 224.737 76.1977 224.633 76.2185C224.758 76.758 225.3 79.4142 225.3 83.0664V99.1485H231.202V82.7551C231.327 82.6513 233.538 80.431 236.186 80.431C238.835 80.431 240.17 82.4023 240.17 85.1V99.1485H246.113V82.7551C246.239 82.6513 248.407 80.431 251.098 80.431C253.788 80.431 255.039 82.4023 255.039 85.1V99.1485H261.004V84.1869C261.004 78.9369 258.001 75.5129 253.183 75.5129L253.204 75.4922Z" fill="#FF7A00"/>
<path d="M188.341 94.8738C184.316 94.8738 181.459 91.7196 181.459 87.5901C181.459 82.9834 184.713 80.2442 188.341 80.2442C190.302 80.2442 191.115 80.846 192.408 80.846C193.785 80.846 194.535 80.182 195.203 78.8539C195.578 78.1276 195.808 77.6918 195.808 77.6918C195.516 77.505 192.512 75.4922 187.424 75.4922C179.979 75.4922 175.516 80.8045 175.516 87.5901C175.516 94.9983 180.604 99.6466 187.424 99.6466C192.366 99.6466 195.37 97.6337 195.891 97.2602L193.847 93.2345C193.388 93.525 191.282 94.8738 188.341 94.8738Z" fill="#FF7A00"/>
<path d="M123.48 75.4922C117.807 75.4922 113.031 80.0782 113.031 87.5901C113.031 95.1021 117.661 99.6466 124.606 99.6466C130.111 99.6466 132.969 97.2602 133.302 97.0319C133.302 97.0319 132.76 96.1604 132.614 95.9114C131.842 94.6455 130.967 94.2513 129.986 94.2513C128.047 94.2513 127.797 95.0606 125.148 95.0606C120.622 95.0606 119.037 91.5329 118.933 89.188H134.116V87.4449C134.116 80.2442 129.945 75.4922 123.5 75.4922H123.48ZM118.912 85.017C118.912 82.3816 120.768 79.9329 123.375 79.9329C126.295 79.9329 127.901 82.4646 127.963 85.017H118.912Z" fill="#FF7A00"/>
<path d="M144.235 92.6122V68.5408C144.235 65.8224 142.421 63.7266 139.585 63.7266H138.312V94.9779C138.312 97.8623 140.106 99.6469 143.213 99.6469C147.051 99.6469 148.198 96.9285 148.198 94.3761C148.031 94.4591 147.218 94.7911 146.404 94.7911C145.028 94.7911 144.214 94.0026 144.214 92.633L144.235 92.6122Z" fill="#FF7A00"/>
<path d="M104.672 91.8056V80.3509H109.615L111.346 75.9309H104.672V69C104.672 69 104.151 69 104.13 69C101.502 69 98.7702 70.1206 98.7702 75.8686V75.9309H94.3906V80.3509H98.7702V93.8392C98.7702 97.6574 101.043 99.6495 104.255 99.6495C106.862 99.6495 110.22 98.861 110.22 93.7354C110.011 93.8599 108.76 94.6692 107.362 94.6692C105.444 94.6692 104.672 93.5072 104.672 91.8056Z" fill="#FF7A00"/>
<path d="M160.605 75.4922C154.932 75.4922 150.156 80.0782 150.156 87.5901C150.156 95.1021 154.786 99.6466 161.731 99.6466C167.236 99.6466 170.094 97.2602 170.427 97.0319C170.427 97.0319 169.885 96.1604 169.739 95.9114C168.967 94.6455 168.092 94.2513 167.111 94.2513C165.172 94.2513 164.922 95.0606 162.273 95.0606C157.747 95.0606 156.162 91.5329 156.058 89.188H171.241V87.4449C171.241 80.2442 167.07 75.4922 160.605 75.4922ZM156.037 85.017C156.037 82.3816 157.893 79.9329 160.5 79.9329C163.42 79.9329 165.026 82.4646 165.088 85.017H156.037Z" fill="#FF7A00"/>
<path d="M209.47 99.6517C202.234 99.6517 197.875 94.8997 197.875 87.5745C197.875 80.2493 202.171 75.4766 209.47 75.4766C216.77 75.4766 221.087 80.2908 221.087 87.5745C221.087 94.4639 217.124 99.6517 209.47 99.6517ZM209.47 95.1279C213.099 95.1279 215.185 92.0153 215.185 87.5953C215.185 83.1753 213.141 80.0418 209.47 80.0418C205.8 80.0418 203.756 83.113 203.756 87.5953C203.756 92.0775 205.8 95.1279 209.47 95.1279Z" fill="#FF7A00"/>
<path d="M18.8946 73.4027C15.3284 71.7426 12.3879 70.3938 12.3879 67.6754C12.3879 65.6002 14.0563 64.0854 17.3513 64.0854C18.5609 64.0854 19.562 64.2307 20.5839 64.4174C21.1261 64.5004 21.6892 64.5834 22.1688 64.5834C25.0468 64.5834 26.6735 62.8818 27.758 59.6239L28.1959 58.2958C27.7371 58.1091 23.0239 56.0547 16.8925 56.0547C7.1324 56.0547 1.98122 62.28 1.98122 68.7544C1.98122 72.0124 3.00312 74.378 4.60895 76.2456C6.67359 78.632 9.635 80.2091 12.3879 81.5372C16.4129 83.5085 20.0416 84.9611 20.0416 87.8663C20.0416 90.4394 17.3513 91.9128 13.7851 91.9128C8.86336 91.9128 4.58809 89.1113 4.02501 88.7793L0 96.312C0.709069 96.7063 5.92281 100.006 14.4734 100.006C23.587 100.006 30.49 94.7972 30.49 86.808C30.49 78.8187 24.0875 75.8928 18.9155 73.4027H18.8946Z" fill="#EA002C"/>
<path d="M54.5294 77.1155L71.0674 56.9453H59.2844L46.104 74.3556H45.9163V56.9453H36.2188V99.6513H36.8027C40.9945 99.6513 45.9997 97.7214 45.9997 90.749V80.9337H46.1874L59.618 99.1117H71.9642L54.5294 77.0947V77.1155Z" fill="#EA002C"/>
<path d="M71.6171 11.1875C68.1969 11.8308 63.1291 14.9227 63.15 20.3803C63.15 25.3398 67.2376 28.3487 67.2584 34.8439C67.2584 39.7204 64.5681 43.0198 61.6484 44.8459C62.8372 44.7422 64.1302 44.6799 65.5483 44.6799C68.5306 44.6799 70.345 44.9497 70.4492 44.9704L85.7776 26.2529C81.5232 19.903 76.5389 14.985 71.6171 11.2083V11.1875Z" fill="#EA002C"/>
<path d="M84.5046 61.7319C86.4441 58.7437 86.6735 53.9709 86.8403 49.1359C87.028 44.6121 87.9665 41.2089 94.0561 41.1882C95.4117 41.1882 96.6839 41.3749 99.0196 41.3542C107.925 41.3127 113.764 38.2623 117.372 36.2494C109.968 31.5596 99.1865 26.7661 85.7767 26.2266C84.9008 28.6752 78.1229 47.455 77.6016 48.9699C77.685 49.0529 78.8737 50.381 80.3544 52.9749C82.5442 56.5233 83.7121 59.5322 84.5046 61.7319Z" fill="#EA002C"/>
<path d="M52.1183 46.3997C51.3466 46.3997 50.9504 45.9016 50.8461 45.0093C50.7418 44.117 46.9045 9.21353 46.3414 3.94273C46.258 3.17493 46.0703 1.76385 46.0703 1.24507C46.0703 0.435775 46.5917 0 47.2173 0C49.0317 0 58.9378 2.30338 69.4487 9.62855C66.4248 10.4794 60.9399 13.6128 60.9608 20.1079C60.9608 25.856 65.1109 29.0102 65.1318 34.779C65.1735 44.1378 54.3497 46.4204 52.0974 46.4204L52.1183 46.3997Z" fill="#FF7A00"/>
<path d="M85.3802 64.2253C85.5471 64.6611 85.6931 65.0346 85.8599 65.2836C86.1101 65.6987 86.423 65.8854 86.7984 65.8854C87.0486 65.8854 87.3406 65.8024 87.6743 65.6572C88.4876 65.2836 120.5 50.4673 125.318 48.2469C126.027 47.9149 127.34 47.3131 127.778 47.0641C128.237 46.8151 128.446 46.4416 128.446 46.0473C128.446 45.8398 128.383 45.6115 128.258 45.4248C127.653 44.4495 124.567 41.1915 119.374 37.6016C115.265 39.8634 108.842 43.3289 99.2905 43.3704C96.9547 43.3704 96.4125 43.2251 94.8275 43.2251C90.156 43.2251 89.009 45.2172 88.8213 49.2845C88.8004 50.0523 88.7796 51.0898 88.7379 52.2312C88.5919 55.8626 88.1539 60.8844 85.3594 64.2253H85.3802Z" fill="#FF7A00"/>
</g>
<defs>
<clipPath id="clip0_1885_26881">
<rect width="261" height="100" fill="white"/>
</clipPath>
</defs>
</svg>
